<?xml version="1.0" encoding="UTF-8"?>
<svg width="256px" height="256px" viewBox="0 0 256 256" version="1.1" xmlns="http://www.w3.org/2000/svg">
    <g stroke="none" stroke-width="1" fill="none" fill-rule="evenodd">
        <rect fill="#1A3C34" x="0" y="0" width="256" height="256" rx="28"></rect>
        <path d="M128,60 C162.242,60 190,87.7583 190,122 C190,156.242 162.242,184 128,184 C93.7583,184 66,156.242 66,122 C66,87.7583 93.7583,60 128,60 Z M128,80 C104.804,80 86,98.804 86,122 C86,145.196 104.804,164 128,164 C151.196,164 170,145.196 170,122 C170,98.804 151.196,80 128,80 Z" fill="#5BEBC5" fill-rule="nonzero"></path>
        <path d="M128,100 C140.15,100 150,109.85 150,122 C150,134.15 140.15,144 128,144 C115.85,144 106,134.15 106,122 C106,109.85 115.85,100 128,100 Z" fill="#5BEBC5" fill-rule="nonzero"></path>
    </g>
</svg>